# xmcd
#
# Track frame offsets:
#	150
#	14466
#	28133
#	48510
#	68980
#	94137
#	112479
#	129147
#	144991
#	151609
#	166522
#	194536
#	206598
#	230663
#
# Disc length: 3555 seconds
# Revision: 0
# Processed by: cddbd v1.5.2PL0 Copyright (c) Steve Scherf et al.
# Submitted via: dBpowerAMP V12.0
#
DISCID=be0de10e
DTITLE=Kamchatka - Kamchatka
DYEAR=2005
DGENRE=
TTITLE0=Out of My Way
TTITLE1=Seed
TTITLE2=No
TTITLE3=Mnemosyne Waltz
TTITLE4=Mixed Emotions
TTITLE5=Wrong End
TTITLE6=Eggshell
TTITLE7=I Love Everybody
TTITLE8=Auto Mowdown
TTITLE9=Spacegirl Blues
TTITLE10=Sing Along song
TTITLE11=Incognito
TTITLE12=Daddy Says
TTITLE13=Squirm
EXTD=
EXTT0=
EXTT1=
EXTT2=
EXTT3=
EXTT4=
EXTT5=
EXTT6=
EXTT7=
EXTT8=
EXTT9=
EXTT10=
EXTT11=
EXTT12=
EXTT13=
PLAYORDER=
